<svg data-v-423bf9ae="" xmlns="http://www.w3.org/2000/svg" viewBox="0 0 563 90" class="iconLeft"><!----><!----><!----><g data-v-423bf9ae="" id="a5ddf294-8b88-4dd8-8a51-4c9fb2de5534" fill="#163530" transform="matrix(4.608295106398049,0,0,4.608295106398049,149.49699123973863,13.064515441961795)"><path d="M5.77 10.50L5.77 2.45L8.88 2.45L8.88 0.42L0.42 0.42L0.42 2.45L3.53 2.45L3.53 10.50ZM12.17 10.50L12.17 6.54C12.17 5.36 12.77 4.77 13.50 4.77C14.31 4.77 14.62 5.25 14.62 6.09L14.62 10.50L16.72 10.50L16.72 6.03C16.72 4.30 16.09 3.01 14.07 3.01C13.20 3.01 12.66 3.33 12.17 4.13L12.17 0.42L10.07 0.42L10.07 10.50ZM24.93 7.46C24.93 7.43 24.95 7 24.95 6.57C24.95 4.13 23.28 3.01 21.45 3.01C19.59 3.01 17.84 4.17 17.84 6.86C17.84 9.55 19.57 10.71 21.45 10.71C23.20 10.71 24.28 9.97 24.82 8.53L22.86 8.12C22.69 8.58 22.26 8.96 21.59 8.96C20.65 8.96 19.99 8.47 19.94 7.46ZM21.39 4.76C22.20 4.76 22.76 5.26 22.82 6.03L19.96 6.03C20.05 5.24 20.69 4.76 21.39 4.76ZM34.96 10.50L34.96 2.45L38.07 2.45L38.07 0.42L29.61 0.42L29.61 2.45L32.72 2.45L32.72 10.50ZM43.41 7.46C43.41 7.43 43.43 7 43.43 6.57C43.43 4.13 41.76 3.01 39.93 3.01C38.07 3.01 36.32 4.17 36.32 6.86C36.32 9.55 38.05 10.71 39.93 10.71C41.68 10.71 42.76 9.97 43.30 8.53L41.34 8.12C41.17 8.58 40.74 8.96 40.07 8.96C39.13 8.96 38.47 8.47 38.42 7.46ZM39.87 4.76C40.68 4.76 41.24 5.26 41.30 6.03L38.44 6.03C38.53 5.24 39.17 4.76 39.87 4.76ZM44.13 8.40C44.27 9.73 45.39 10.71 47.17 10.71C48.90 10.71 50.19 9.93 50.19 8.32C50.19 6.82 49.07 6.30 48.27 6.13L46.61 5.78C46.24 5.71 46.07 5.52 46.07 5.28C46.07 4.79 46.55 4.62 47.12 4.62C47.64 4.62 48.16 4.82 48.26 5.42L50.02 5.11C49.98 4.00 48.93 3.01 47.19 3.01C45.70 3.01 44.31 3.67 44.31 5.33C44.31 6.54 45.14 7.21 46.09 7.42L47.81 7.80C48.10 7.87 48.37 8.04 48.37 8.37C48.37 8.96 47.78 9.10 47.21 9.10C46.42 9.10 45.96 8.74 45.88 8.11L44.13 8.40ZM55.19 8.74C54.96 8.81 54.75 8.82 54.61 8.82C53.96 8.82 53.96 8.37 53.96 7.74L53.96 4.89L55.34 4.89L55.34 3.22L53.96 3.22L53.96 1.12L51.86 1.72L51.86 3.22L50.82 3.22L50.82 4.89L51.86 4.89L51.86 8.37C51.86 9.80 52.46 10.64 53.98 10.64C54.25 10.64 55.03 10.56 55.31 10.40ZM67.14 10.22L67.14 3.22L65.18 3.22L65.18 4.07C64.76 3.37 64.11 3.01 63.28 3.01C61.54 3.01 60.14 4.24 60.14 6.79C60.14 9.34 61.61 10.57 63.35 10.57C63.94 10.57 64.62 10.42 65.04 9.87L65.04 10.25C65.04 11.19 64.61 11.82 63.56 11.82C62.83 11.82 62.43 11.61 62.31 11.14L60.28 10.96C60.28 12.70 62.05 13.44 63.56 13.44C66.12 13.44 67.14 12.03 67.14 10.22ZM65.20 6.79C65.20 8.22 64.62 8.82 63.73 8.82C62.83 8.82 62.24 8.22 62.24 6.79C62.24 5.36 62.89 4.76 63.71 4.76C64.54 4.76 65.20 5.36 65.20 6.79ZM73.23 3.22L73.23 7.18C73.23 8.36 72.63 8.95 71.90 8.95C71.09 8.95 70.78 8.47 70.78 7.63L70.78 3.22L68.68 3.22L68.68 7.69C68.68 9.42 69.31 10.71 71.33 10.71C72.20 10.71 72.83 10.35 73.36 9.45L73.36 10.50L75.33 10.50L75.33 3.22ZM78.97 10.50L78.97 7.27C78.97 5.85 79.58 4.97 80.78 4.97C81.21 4.97 81.54 5.11 81.82 5.25L82.12 3.37C81.79 3.11 81.40 3.01 80.84 3.01C79.79 3.01 79.31 3.50 78.85 4.48L78.85 3.22L76.87 3.22L76.87 10.50ZM87.58 3.22L87.58 7.18C87.58 8.36 86.98 8.95 86.25 8.95C85.44 8.95 85.13 8.47 85.13 7.63L85.13 3.22L83.03 3.22L83.03 7.69C83.03 9.42 83.66 10.71 85.68 10.71C86.55 10.71 87.18 10.35 87.71 9.45L87.71 10.50L89.68 10.50L89.68 3.22Z"></path></g><defs data-v-423bf9ae=""><linearGradient data-v-423bf9ae="" gradientTransform="rotate(25)" id="100d998b-d43d-4f9f-abb3-9ea295885a26" x1="0%" y1="0%" x2="100%" y2="0%"><stop data-v-423bf9ae="" offset="0%" style="stop-color: rgb(2, 24, 2); stop-opacity: 1;"></stop><stop data-v-423bf9ae="" offset="100%" style="stop-color: rgb(96, 219, 204); stop-opacity: 1;"></stop></linearGradient></defs><g data-v-423bf9ae="" id="85eefbde-dd91-4d55-9330-e27528906ba1" transform="matrix(1.7196902351051526,0,0,1.7196902351051526,-11.769907534697296,-31.655403190762854)" stroke="none" fill="url(#100d998b-d43d-4f9f-abb3-9ea295885a26)"><switch><g><path d="M45.349 60.664l-11.575-15.32 3.671-2.748 8.048 10.741 11.025-13.198c-2.542-2.821-6.213-4.609-10.312-4.609-7.666 0-13.882 6.217-13.882 13.888 0 7.667 6.216 13.883 13.882 13.883 7.671 0 13.887-6.216 13.887-13.883 0-1.837-.366-3.585-1.014-5.189l-13.73 16.435z"></path><path d="M76.856 41.672c.009-.264.02-.527.02-.793 0-12.098-9.807-21.905-21.905-21.905-7.218 0-13.618 3.493-17.609 8.878a15.783 15.783 0 0 0-5.755-1.084c-7.902 0-14.451 5.795-15.631 13.367-5.367 2.942-8.954 8.28-8.954 14.38 0 9.275 8.297 16.794 18.531 16.794h39.365c10.235 0 18.532-7.519 18.532-16.794 0-5.153-2.563-9.761-6.594-12.843zm-14.472 7.745c0 8.802-7.137 15.938-15.941 15.938-8.804 0-15.94-7.137-15.94-15.938 0-8.806 7.136-15.943 15.94-15.943a15.89 15.89 0 0 1 11.51 4.919l2.159-2.588 3.521 2.941-2.941 3.522a15.89 15.89 0 0 1 1.692 7.149z"></path></g></switch></g><!----></svg>