<svg data-v-fde0c5aa="" xmlns="http://www.w3.org/2000/svg" viewBox="0 0 300 300" class="iconLeft"><!----><defs data-v-fde0c5aa=""><!----></defs><rect data-v-fde0c5aa="" fill="#E9F1EF" x="0" y="0" width="300px" height="300px" class="logo-background-square"></rect><defs data-v-fde0c5aa=""><!----></defs><g data-v-fde0c5aa="" id="e9caa2bc-10ce-4283-ba76-83460170149b" fill="#163530" transform="matrix(1.8561254045541427,0,0,1.8561254045541427,82.72145300360373,134.66840373354938)"><path d="M4.12 13.12C4.12 13.22 4.19 13.30 4.30 13.30C4.38 13.30 4.48 13.22 4.48 13.12L4.48 3.85L7.70 3.85C7.81 3.85 7.88 3.78 7.88 3.68C7.88 3.58 7.81 3.50 7.70 3.50L0.88 3.50C0.78 3.50 0.70 3.58 0.70 3.68C0.70 3.78 0.78 3.85 0.88 3.85L4.12 3.85L4.12 13.12ZM15.30 13.12C15.30 13.22 15.37 13.30 15.48 13.30C15.57 13.30 15.65 13.22 15.65 13.12L15.65 9.23C15.65 7.69 14.42 6.44 12.88 6.44C11.83 6.44 10.92 7.03 10.44 7.88L10.44 3.68C10.44 3.58 10.37 3.50 10.28 3.50C10.18 3.50 10.09 3.58 10.09 3.68L10.09 9.11L10.09 9.23L10.09 13.12L10.09 13.15C10.09 13.19 10.12 13.23 10.15 13.26C10.19 13.29 10.23 13.30 10.28 13.30L10.30 13.30C10.32 13.30 10.35 13.29 10.37 13.27C10.42 13.24 10.44 13.19 10.44 13.12L10.44 9.13C10.50 7.84 11.56 6.80 12.88 6.80C14.22 6.80 15.30 7.88 15.30 9.23L15.30 13.12ZM21.52 13.30C22.67 13.30 23.69 12.66 24.28 11.75C24.33 11.66 24.30 11.55 24.23 11.51C24.14 11.47 24.04 11.47 23.98 11.55C23.46 12.39 22.55 12.95 21.52 12.95C19.87 12.94 18.54 11.55 18.54 9.87L18.54 9.83L24.64 9.83C24.72 9.83 24.79 9.74 24.81 9.66L24.81 9.65L24.81 9.62L24.81 9.60C24.68 7.83 23.27 6.44 21.52 6.44C19.68 6.44 18.21 7.97 18.19 9.87C18.21 11.75 19.68 13.27 21.52 13.30ZM21.52 6.80C23.02 6.80 24.28 7.97 24.46 9.49L18.55 9.49C18.73 7.97 19.99 6.80 21.52 6.80ZM34.22 13.12C34.22 13.22 34.29 13.30 34.40 13.30C34.48 13.30 34.58 13.22 34.58 13.12L34.58 3.85L37.80 3.85C37.91 3.85 37.98 3.78 37.98 3.68C37.98 3.58 37.91 3.50 37.80 3.50L30.98 3.50C30.88 3.50 30.80 3.58 30.80 3.68C30.80 3.78 30.88 3.85 30.98 3.85L34.22 3.85L34.22 13.12ZM41.43 13.30C42.57 13.30 43.60 12.66 44.18 11.75C44.24 11.66 44.21 11.55 44.14 11.51C44.04 11.47 43.95 11.47 43.89 11.55C43.37 12.39 42.46 12.95 41.43 12.95C39.77 12.94 38.44 11.55 38.44 9.87L38.44 9.83L44.55 9.83C44.63 9.83 44.70 9.74 44.72 9.66L44.72 9.65L44.72 9.62L44.72 9.60C44.59 7.83 43.18 6.44 41.43 6.44C39.59 6.44 38.12 7.97 38.09 9.87C38.12 11.75 39.59 13.27 41.43 13.30ZM41.43 6.80C42.92 6.80 44.18 7.97 44.37 9.49L38.46 9.49C38.64 7.97 39.90 6.80 41.43 6.80ZM49.32 13.30C50.79 13.30 51.95 12.43 51.95 11.33C51.95 10.00 50.69 9.70 49.57 9.45C48.47 9.18 47.52 8.96 47.52 7.97C47.52 7.24 48.33 6.66 49.32 6.66C50.53 6.66 51.16 7.36 51.17 7.38C51.23 7.45 51.34 7.46 51.42 7.39C51.49 7.32 51.51 7.21 51.44 7.14C51.41 7.10 50.69 6.30 49.32 6.30C48.13 6.30 47.15 7.04 47.15 7.97C47.15 9.25 48.40 9.53 49.49 9.80C50.57 10.05 51.59 10.28 51.59 11.33C51.59 12.22 50.57 12.95 49.32 12.95C48.01 12.95 47.00 12.05 46.98 12.04C46.91 11.97 46.80 11.98 46.73 12.05C46.66 12.12 46.68 12.24 46.75 12.31C46.79 12.35 47.87 13.30 49.32 13.30ZM56.32 6.44L55.20 6.44L55.20 3.70C55.20 3.60 55.12 3.51 55.02 3.51C54.92 3.51 54.85 3.60 54.85 3.70L54.85 3.70L54.85 6.44L53.68 6.44C53.58 6.44 53.49 6.52 53.49 6.62C53.49 6.72 53.58 6.79 53.68 6.79L54.85 6.79L54.85 12.25C54.85 12.84 55.33 13.31 55.92 13.31C56.01 13.31 56.10 13.23 56.10 13.13C56.10 13.03 56.01 12.96 55.92 12.96C55.52 12.96 55.20 12.64 55.20 12.25L55.20 6.79L56.32 6.79C56.42 6.79 56.50 6.72 56.50 6.62C56.50 6.52 56.42 6.44 56.32 6.44ZM71.83 8.65L71.83 11.97C71.02 12.57 70.00 12.94 68.91 12.94C66.25 12.94 64.09 10.84 64.09 8.23C64.09 5.67 66.25 3.56 68.91 3.56C70.04 3.56 71.09 3.95 71.90 4.59C71.97 4.66 72.11 4.65 72.17 4.58C72.24 4.48 72.23 4.37 72.13 4.30C71.26 3.61 70.13 3.21 68.91 3.21C66.05 3.21 63.73 5.46 63.73 8.23C63.73 11.03 66.05 13.29 68.91 13.30C70.13 13.30 71.26 12.88 72.13 12.21C72.16 12.18 72.17 12.15 72.18 12.11L72.18 12.08C72.20 12.07 72.20 12.05 72.20 12.04L72.20 8.48C72.20 8.37 72.13 8.29 72.03 8.29L72.00 8.29L68.82 8.29C68.74 8.29 68.64 8.37 68.64 8.48C68.64 8.57 68.74 8.65 68.82 8.65ZM75.26 10.53L75.26 10.53C75.26 12.07 76.50 13.30 78.01 13.30L78.01 13.30C79.53 13.30 80.78 12.07 80.78 10.53L80.78 6.62L80.78 6.62C80.78 6.52 80.70 6.44 80.60 6.44L80.60 6.44C80.51 6.44 80.42 6.52 80.42 6.62L80.42 10.53L80.42 10.53C80.42 11.87 79.34 12.95 78.01 12.95L78.01 12.95C76.69 12.95 75.61 11.87 75.61 10.53L75.61 6.62L75.61 6.62C75.61 6.52 75.53 6.44 75.45 6.44L75.45 6.44C75.33 6.44 75.26 6.52 75.26 6.62L75.26 10.53ZM84 13.12C84 13.23 84.08 13.30 84.17 13.30C84.28 13.30 84.34 13.23 84.34 13.12L84.34 9.91C84.34 9.91 84.39 9.74 84.50 9.44C84.69 9.00 85.02 8.30 85.51 7.74C85.97 7.22 86.63 6.80 87.50 6.80C87.61 6.80 87.68 6.72 87.68 6.62C87.68 6.52 87.61 6.44 87.50 6.44C86.18 6.44 85.30 7.34 84.77 8.13C84.59 8.41 84.45 8.69 84.34 8.95L84.34 6.62C84.34 6.52 84.28 6.44 84.17 6.44C84.08 6.44 84 6.52 84 6.62L84 9.83C83.99 9.87 83.99 9.88 84 9.91L84 13.12ZM89.99 10.53L89.99 10.53C89.99 12.07 91.22 13.30 92.74 13.30L92.74 13.30C94.26 13.30 95.51 12.07 95.51 10.53L95.51 6.62L95.51 6.62C95.51 6.52 95.42 6.44 95.33 6.44L95.33 6.44C95.24 6.44 95.14 6.52 95.14 6.62L95.14 10.53L95.14 10.53C95.14 11.87 94.07 12.95 92.74 12.95L92.74 12.95C91.42 12.95 90.34 11.87 90.34 10.53L90.34 6.62L90.34 6.62C90.34 6.52 90.26 6.44 90.17 6.44L90.17 6.44C90.06 6.44 89.99 6.52 89.99 6.62L89.99 10.53Z"></path></g><defs data-v-fde0c5aa=""><linearGradient data-v-fde0c5aa="" gradientTransform="rotate(25)" id="1eb399ba-8b52-4ea3-83c1-95356e3ac55d" x1="0%" y1="0%" x2="100%" y2="0%"><stop data-v-fde0c5aa="" offset="0%" stop-color="#021802" stop-opacity="1"></stop><stop data-v-fde0c5aa="" offset="100%" stop-color="#60DBCC" stop-opacity="1"></stop></linearGradient></defs><g data-v-fde0c5aa="" id="91505de0-6ad6-4e74-baec-e83c8728e962" stroke="none" fill="url(#1eb399ba-8b52-4ea3-83c1-95356e3ac55d)" transform="matrix(0.969398148895778,0,0,0.969398148895778,40,133.0394101681195)"><path d="M16 26.219l7.496-12.954H8.504zM7.496 19.046L0 32h14.992zM17.008 32H32l-7.496-12.954zM3.587 2.992L0 9.191h7.174zM8.275 9.191h7.174l-3.587-6.199zM20.138 2.992l-3.587 6.199h7.174zM24.826 9.191H32l-3.587-6.199z"></path></g><!----></svg>